<?xml version="1.0" encoding="UTF-8"?>
<svg width="373px" height="60px" viewBox="0 0 373 60" version="1.1" xmlns="http://www.w3.org/2000/svg" xmlns:xlink="http://www.w3.org/1999/xlink">
    <!-- Generator: Sketch 51.2 (57519) - http://www.bohemiancoding.com/sketch -->
    <title>little_logo copy</title>
    <desc>Created with Sketch.</desc>
    <defs></defs>
    <g id="little_logo-copy" stroke="none" stroke-width="1" fill="none" fill-rule="evenodd">
        <path d="M76,51.4803222 C76.7409137,50.9973807 77.3183819,50.5446298 77.732422,50.122056 C78.146462,49.6994821 78.4515395,49.2970369 78.6476638,48.9147082 C78.843788,48.5323795 78.9636399,48.1903011 79.007223,47.8884626 C79.0508062,47.5866242 79.0943887,47.3149736 79.1379719,47.0735029 L83.6488064,17.4934831 C83.9974717,15.1190206 84.7383743,13.0967334 85.8715365,11.4265607 C87.0046986,9.75638792 88.4102345,8.41825755 90.0881862,7.4121294 C91.7661378,6.40600124 93.6401856,5.73190549 95.7103857,5.38982192 C97.7805859,5.04773835 99.9488156,5.01755496 102.21514,5.29927084 L100.842277,14.5354811 C99.970614,14.3342555 99.1643376,14.2839498 98.4234239,14.3845626 C97.6825102,14.4851755 97.0287726,14.6863981 96.4621915,14.9882365 C95.8956104,15.290075 95.4379941,15.6623368 95.0893288,16.1050332 C94.7406635,16.5477296 94.522751,17.0105416 94.4355847,17.4934831 L94.2394614,18.5197287 L99.9270354,18.5197287 L98.5541727,27.5144694 L92.8665987,27.5144694 L89.9247501,47.0735029 C89.619668,49.1260043 88.6935397,51.0678025 87.1463375,52.8989558 C85.5991353,54.730109 83.3219494,56.4304401 80.3147113,58 L76,51.4803222 Z M100.523577,27.8766737 C100.828659,25.9449077 101.482397,24.2646988 102.484809,22.8359969 C103.487222,21.4072949 104.718428,20.2100203 106.178464,19.2441373 C107.6385,18.2782543 109.229261,17.5538529 110.950796,17.0709114 C112.672331,16.5879699 114.404735,16.3465027 116.148062,16.3465027 C117.847805,16.3465027 119.493045,16.5879699 121.08383,17.0709114 C122.674615,17.5538529 124.036569,18.2782543 125.169731,19.2441373 C126.302893,20.2100203 127.163648,21.4072949 127.75202,22.8359969 C128.340393,24.2646988 128.482036,25.9449077 128.176954,27.8766737 L126.673342,37.7769252 C126.411844,39.628201 125.769002,41.2379819 124.744797,42.6063162 C123.720593,43.9746505 122.489387,45.1216194 121.051143,46.0472573 C119.612899,46.9728952 118.033033,47.6671132 116.311498,48.1299322 C114.589963,48.5927511 112.857558,48.8241571 111.114232,48.8241571 C109.414489,48.8241571 107.769249,48.5927511 106.178464,48.1299322 C104.587678,47.6671132 103.214829,46.9728952 102.059876,46.0472573 C100.904922,45.1216194 100.044167,43.9645894 99.4775864,42.5761325 C98.9110053,41.1876757 98.7584665,39.5879559 99.0199655,37.7769252 L100.523577,27.8766737 Z M114.64445,25.4016108 C113.990703,25.4016108 113.304278,25.6028334 112.585156,26.0052847 C111.866034,26.407736 111.462896,26.9711593 111.37573,27.6955715 L109.872118,37.89766 C109.784952,38.6220723 110.002864,39.1955567 110.525862,39.6181306 C111.04886,40.0407044 111.680807,40.2519881 112.42172,40.2519881 C113.162634,40.2519881 113.87085,40.0708878 114.546389,39.7086816 C115.221928,39.3464755 115.625066,38.7428077 115.755815,37.89766 L117.259427,27.6955715 C117.346593,26.9711593 117.095994,26.407736 116.507621,26.0052847 C115.919248,25.6028334 115.298198,25.4016108 114.64445,25.4016108 Z M156.68837,46.2887269 C154.770711,47.0936294 152.765916,47.7174195 150.673924,48.1601159 C148.581932,48.6028122 146.293851,48.8241571 143.809611,48.8241571 C141.848368,48.8241571 139.996112,48.6128734 138.252786,48.1902996 C136.509459,47.7677257 135.016758,47.09363 133.774638,46.1679921 C132.532518,45.2423542 131.60639,44.0249574 130.996226,42.5157651 C130.386061,41.0065729 130.233523,39.1855083 130.538605,37.0525166 L133.480453,16.9501766 L144.463355,16.9501766 L141.521506,36.9921492 C141.347174,38.0385225 141.586877,38.7830461 142.240625,39.2257425 C142.894372,39.6684389 143.657066,39.8897838 144.528729,39.8897838 C145.313226,39.8897838 146.032337,39.7690502 146.686085,39.5275795 L150.02018,16.9501766 L161.068456,16.9501766 L156.68837,46.2887269 Z M179.316089,16.3465027 C179.926253,16.3465027 180.65626,16.3968084 181.506132,16.4974212 C182.356004,16.598034 183.478253,16.8093178 184.872914,17.1312788 L183.565426,25.6430804 C182.824512,25.4016096 181.985549,25.2607538 181.048511,25.2205087 C180.111473,25.1802635 179.207136,25.2708137 178.335473,25.4921619 C177.46381,25.7135101 176.701116,26.0857719 176.047369,26.6089586 C175.393621,27.1321452 175.001379,27.8163021 174.870629,28.6614497 L171.92878,48.2204832 L160.880505,48.2204832 L163.822353,28.540715 C164.127435,26.4077233 164.726695,24.5765975 165.62015,23.0472827 C166.513604,21.5179679 167.635854,20.2502655 168.986932,19.2441373 C170.33801,18.2380092 171.885189,17.5035466 173.628515,17.0407277 C175.371842,16.5779087 177.267681,16.3465027 179.316089,16.3465027 Z M206.193145,16.9501766 L218.025914,16.9501766 L201.22469,48.2204832 L191.418528,48.2204832 L184.161968,16.9501766 L195.863988,16.9501766 L197.82522,32.0420234 L197.955969,38.1994969 L198.152092,38.1994969 L199.721078,31.9816561 L206.193145,16.9501766 Z M219.668446,9.64572273 C219.842779,8.35787869 220.311291,7.30145998 221.073996,6.47643489 C221.836701,5.65140981 222.719247,5.02761971 223.72166,4.60504588 C224.724072,4.18247206 225.780948,3.98124945 226.892319,4.00137201 C228.003689,4.02149457 228.995191,4.24283945 229.866855,4.66541327 C230.738518,5.0879871 231.414047,5.71177719 231.893461,6.53680228 C232.372876,7.36182737 232.525415,8.39812382 232.351082,9.64572273 C232.17675,10.8128314 231.719133,11.7887611 230.97822,12.573541 C230.237306,13.358321 229.365656,13.9418666 228.363243,14.3241952 C227.36083,14.7065239 226.31485,14.9077466 225.225271,14.9278691 C224.135692,14.9479917 223.14419,14.7668913 222.250735,14.3845626 C221.357281,14.0022339 220.659961,13.4186884 220.158754,12.6339084 C219.657548,11.8491284 219.494113,10.8530765 219.668446,9.64572273 Z M230.520599,16.9501766 L225.748267,48.2204832 L214.699991,48.2204832 L219.472323,16.9501766 L230.520599,16.9501766 Z M241.969293,36.5092101 C241.79496,37.6763188 242.034664,38.5818205 242.688412,39.2257425 C243.342159,39.8696646 244.181122,40.2721098 245.205327,40.4330903 C246.229531,40.5940708 247.319093,40.533704 248.474047,40.2519881 C249.629001,39.9702722 250.598712,39.487338 251.383209,38.8031708 L256.678536,43.7532966 C255.501791,44.839915 254.335959,45.7152334 253.181005,46.3792779 C252.026051,47.0433225 250.88201,47.5564402 249.748848,47.9186463 C248.615686,48.2808524 247.515228,48.5223196 246.44744,48.643055 C245.379653,48.7637903 244.36636,48.8241571 243.40753,48.8241571 C241.707787,48.8241571 240.073443,48.5726289 238.504449,48.0695648 C236.935455,47.5665007 235.573502,46.8320382 234.418548,45.8661551 C233.263594,44.9002721 232.391944,43.6929364 231.803572,42.2441119 C231.215199,40.7952874 231.073556,39.1251397 231.378638,37.2336187 L232.751501,28.2992454 C233.056583,26.3272342 233.71032,24.5967198 234.712733,23.1076501 C235.715146,21.6185804 236.946352,20.3710002 238.406387,19.3648721 C239.866423,18.3587439 241.46808,17.6041591 243.211407,17.1010951 C244.954733,16.598031 246.698034,16.3465027 248.44136,16.3465027 C250.184686,16.3465027 251.808135,16.5879699 253.311754,17.0709114 C254.815373,17.5538529 256.090161,18.2681932 257.136157,19.2139536 C258.182153,20.1597141 258.944847,21.3469275 259.424261,22.7756295 C259.903676,24.2043315 259.990841,25.8845403 259.685759,27.8163063 C259.380677,29.6675821 258.661566,31.2371185 257.528404,32.5249625 C256.395241,33.8128066 255.000601,34.8189196 253.344441,35.5433319 C251.688281,36.2677442 249.868711,36.7104339 247.885677,36.8714144 C245.902644,37.0323949 243.930535,36.9116614 241.969293,36.5092101 Z M243.015284,30.4724714 C243.669031,30.7541872 244.377247,30.9051042 245.139952,30.9252268 C245.902657,30.9453493 246.610873,30.844738 247.264621,30.6233898 C247.918368,30.4020416 248.474045,30.0499021 248.931668,29.5669606 C249.389291,29.084019 249.661682,28.4401067 249.748848,27.6352042 C249.879598,26.9107919 249.737955,26.2467573 249.323915,25.6430804 C248.909875,25.0394035 248.179868,24.7375696 247.133872,24.7375696 C246.349375,24.7375696 245.575785,24.9790367 244.81308,25.4619782 C244.050375,25.9449197 243.603654,26.6290766 243.472905,27.5144694 L243.015284,30.4724714 Z M278.064141,16.3465027 C278.674305,16.3465027 279.404312,16.3968084 280.254184,16.4974212 C281.104056,16.598034 282.226305,16.8093178 283.620966,17.1312788 L282.313478,25.6430804 C281.572564,25.4016096 280.733601,25.2607538 279.796563,25.2205087 C278.859525,25.1802635 277.955188,25.2708137 277.083525,25.4921619 C276.211862,25.7135101 275.449168,26.0857719 274.795421,26.6089586 C274.141673,27.1321452 273.749431,27.8163021 273.618681,28.6614497 L270.676832,48.2204832 L259.628557,48.2204832 L262.570405,28.540715 C262.875487,26.4077233 263.474747,24.5765975 264.368202,23.0472827 C265.261656,21.5179679 266.383906,20.2502655 267.734984,19.2441373 C269.086062,18.2380092 270.633241,17.5035466 272.376567,17.0407277 C274.119894,16.5779087 276.015733,16.3465027 278.064141,16.3465027 Z M292.912305,36.5092101 C292.737972,37.6763188 292.977676,38.5818205 293.631424,39.2257425 C294.285171,39.8696646 295.124134,40.2721098 296.148338,40.4330903 C297.172543,40.5940708 298.262105,40.533704 299.417059,40.2519881 C300.572013,39.9702722 301.541724,39.487338 302.326221,38.8031708 L307.621548,43.7532966 C306.444803,44.839915 305.278971,45.7152334 304.124017,46.3792779 C302.969063,47.0433225 301.825022,47.5564402 300.69186,47.9186463 C299.558698,48.2808524 298.45824,48.5223196 297.390452,48.643055 C296.322665,48.7637903 295.309372,48.8241571 294.350542,48.8241571 C292.650799,48.8241571 291.016455,48.5726289 289.447461,48.0695648 C287.878467,47.5665007 286.516514,46.8320382 285.36156,45.8661551 C284.206606,44.9002721 283.334956,43.6929364 282.746584,42.2441119 C282.158211,40.7952874 282.016568,39.1251397 282.32165,37.2336187 L283.694513,28.2992454 C283.999595,26.3272342 284.653332,24.5967198 285.655745,23.1076501 C286.658158,21.6185804 287.889364,20.3710002 289.349399,19.3648721 C290.809435,18.3587439 292.411092,17.6041591 294.154419,17.1010951 C295.897745,16.598031 297.641046,16.3465027 299.384372,16.3465027 C301.127698,16.3465027 302.751147,16.5879699 304.254766,17.0709114 C305.758385,17.5538529 307.033173,18.2681932 308.079169,19.2139536 C309.125165,20.1597141 309.887859,21.3469275 310.367273,22.7756295 C310.846688,24.2043315 310.933853,25.8845403 310.628771,27.8163063 C310.323689,29.6675821 309.604578,31.2371185 308.471415,32.5249625 C307.338253,33.8128066 305.943613,34.8189196 304.287453,35.5433319 C302.631293,36.2677442 300.811723,36.7104339 298.828689,36.8714144 C296.845656,37.0323949 294.873547,36.9116614 292.912305,36.5092101 Z M293.958296,30.4724714 C294.612043,30.7541872 295.320259,30.9051042 296.082964,30.9252268 C296.845669,30.9453493 297.553885,30.844738 298.207633,30.6233898 C298.86138,30.4020416 299.417057,30.0499021 299.87468,29.5669606 C300.332303,29.084019 300.604694,28.4401067 300.69186,27.6352042 C300.82261,26.9107919 300.680967,26.2467573 300.266927,25.6430804 C299.852887,25.0394035 299.12288,24.7375696 298.076884,24.7375696 C297.292387,24.7375696 296.518797,24.9790367 295.756092,25.4619782 C294.993387,25.9449197 294.546666,26.6290766 294.415917,27.5144694 L293.958296,30.4724714 Z M310.44082,42.4855814 C310.571569,41.6404338 310.865751,40.8556656 311.323374,40.1312533 C311.780997,39.4068411 312.336674,38.7729898 312.990422,38.2296806 C313.644169,37.6863714 314.385072,37.263804 315.213152,36.9619655 C316.041232,36.6601271 316.912882,36.5092101 317.828128,36.5092101 C319.658621,36.5092101 321.118635,37.0826945 322.208214,38.2296806 C323.297793,39.3766667 323.711827,40.7952862 323.450328,42.4855814 C323.319579,43.3307291 323.025397,44.1255584 322.567773,44.8700933 C322.11015,45.6146281 321.543578,46.2585404 320.868039,46.8018496 C320.1925,47.3451588 319.440701,47.7777875 318.612621,48.0997485 C317.784541,48.4217095 316.912891,48.5826876 315.997645,48.5826876 C315.082398,48.5826876 314.254331,48.4217095 313.513417,48.0997485 C312.772503,47.7777875 312.151453,47.3451588 311.650246,46.8018496 C311.14904,46.2585404 310.789484,45.6146281 310.571569,44.8700933 C310.353653,44.1255584 310.31007,43.3307291 310.44082,42.4855814 Z M331.041932,9.64572273 C331.216264,8.35787869 331.684776,7.30145998 332.447482,6.47643489 C333.210187,5.65140981 334.092733,5.02761971 335.095146,4.60504588 C336.097558,4.18247206 337.154434,3.98124945 338.265805,4.00137201 C339.377175,4.02149457 340.368677,4.24283945 341.24034,4.66541327 C342.112004,5.0879871 342.787532,5.71177719 343.266947,6.53680228 C343.746362,7.36182737 343.898901,8.39812382 343.724568,9.64572273 C343.550235,10.8128314 343.092619,11.7887611 342.351705,12.573541 C341.610792,13.358321 340.739142,13.9418666 339.736729,14.3241952 C338.734316,14.7065239 337.688336,14.9077466 336.598757,14.9278691 C335.509178,14.9479917 334.517676,14.7668913 333.624221,14.3845626 C332.730766,14.0022339 332.033446,13.4186884 331.53224,12.6339084 C331.031034,11.8491284 330.867599,10.8530765 331.041932,9.64572273 Z M341.894085,16.9501766 L337.121752,48.2204832 L326.073476,48.2204832 L330.845809,16.9501766 L341.894085,16.9501766 Z M344.190361,27.8766737 C344.495443,25.9449077 345.149181,24.2646988 346.151593,22.8359969 C347.154006,21.4072949 348.385212,20.2100203 349.845248,19.2441373 C351.305284,18.2782543 352.896045,17.5538529 354.61758,17.0709114 C356.339115,16.5879699 358.071519,16.3465027 359.814846,16.3465027 C361.514589,16.3465027 363.159829,16.5879699 364.750614,17.0709114 C366.341399,17.5538529 367.703353,18.2782543 368.836515,19.2441373 C369.969677,20.2100203 370.830431,21.4072949 371.418804,22.8359969 C372.007177,24.2646988 372.14882,25.9449077 371.843738,27.8766737 L370.340126,37.7769252 C370.078627,39.628201 369.435785,41.2379819 368.411581,42.6063162 C367.387377,43.9746505 366.156171,45.1216194 364.717927,46.0472573 C363.279682,46.9728952 361.699817,47.6671132 359.978282,48.1299322 C358.256747,48.5927511 356.524342,48.8241571 354.781016,48.8241571 C353.081273,48.8241571 351.436033,48.5927511 349.845248,48.1299322 C348.254462,47.6671132 346.881613,46.9728952 345.72666,46.0472573 C344.571706,45.1216194 343.710951,43.9645894 343.14437,42.5761325 C342.577789,41.1876757 342.42525,39.5879559 342.686749,37.7769252 L344.190361,27.8766737 Z M358.311234,25.4016108 C357.657487,25.4016108 356.971062,25.6028334 356.25194,26.0052847 C355.532818,26.407736 355.12968,26.9711593 355.042514,27.6955715 L353.538902,37.89766 C353.451736,38.6220723 353.669648,39.1955567 354.192646,39.6181306 C354.715644,40.0407044 355.34759,40.2519881 356.088504,40.2519881 C356.829418,40.2519881 357.537634,40.0708878 358.213173,39.7086816 C358.888712,39.3464755 359.29185,38.7428077 359.422599,37.89766 L360.926211,27.6955715 C361.013377,26.9711593 360.762778,26.407736 360.174405,26.0052847 C359.586032,25.6028334 358.964982,25.4016108 358.311234,25.4016108 Z" id="fourviere.io" fill="#1A202C"></path>
        <path d="M41.2144972,57.8941437 L23.9259821,58 L23.9259821,53.3221606 L23.6440678,53.2347871 L23.6440678,52.382056 L24.3015493,52.382056 C24.3808676,52.1795849 24.4582746,51.9779539 24.5347259,51.7754827 L23.6440678,51.4973999 L23.6440678,50.6446688 L24.9494744,50.6446688 C26.2118772,47.1060446 27.2057446,43.363269 27.986504,39.5826875 L27.3882722,39.2617582 L27.3882722,38.409027 L28.2206362,38.409027 C31.7670228,20.2210699 30.5543134,9.97737445 30.8266713,9.50522184 L30.8266713,9.05491258 L30.4769064,9.05491258 L30.4769064,8.34416327 L30.8266713,8.34416327 L30.8266713,8.10724684 L30.4769064,8.10724684 L30.4769064,7.39649753 L30.851518,7.39649753 L31.9581511,6.30684995 L32.4560405,6.30684995 L32.4560405,5.60450193 L32.0976748,5.60450193 L32.0976748,5.25668844 L32.4560405,5.25668844 L32.4560405,4.94584064 L32.0976748,4.94584064 L32.0976748,4.5997074 L32.4560405,4.5997074 L32.4560405,4.28969973 L32.0976748,4.28969973 L32.0976748,3.94188623 L32.4560405,3.94188623 L32.4560405,3.63103843 L32.0976748,3.63103843 L32.0976748,3.28322494 L32.4560405,3.28322494 L32.4560405,0.110056926 C32.4560405,0.0495676232 32.513379,0 32.5821852,0 C32.6509914,0 32.7083299,0.048727494 32.7083299,0.110056926 L32.7083299,3.28322494 L33.0676512,3.28322494 L33.0676512,3.6301983 L32.7083299,3.6301983 L32.7083299,3.94104611 L33.0676512,3.94104611 L33.0676512,4.28801947 L32.7083299,4.28801947 L32.7083299,4.59886727 L33.0676512,4.59886727 L33.0676512,4.94584064 L32.7083299,4.94584064 L32.7083299,5.25668844 L33.0676512,5.25668844 L33.0676512,5.60198155 L32.7083299,5.60198155 L32.7083299,6.30432956 L33.089631,6.30432956 L34.1972198,7.39397714 L34.5718313,7.39397714 L34.5718313,8.10472645 L34.2220665,8.10472645 L34.2220665,8.34164289 L34.5718313,8.34164289 L34.5718313,9.0523922 L34.2220665,9.0523922 L34.2220665,9.50270145 C34.4934687,9.97569419 33.3084729,20.2185495 36.8720611,38.4065067 L37.7053807,38.4065067 L37.7053807,39.3852572 L37.1281731,39.6717412 C37.9108437,43.4212379 38.9027998,47.1320886 40.1566018,50.6421484 L41.3559322,50.6421484 L41.3559322,51.6208989 L40.5981083,51.8401727 C40.6659589,52.0199603 40.7357207,52.199748 40.8054825,52.3795356 L41.3559322,52.3795356 L41.3559322,53.357446 L41.2144972,53.3977722 L41.2144972,57.8941437 Z M28.8704726,50.6421484 L36.1983336,50.6421484 C35.8753267,50.4522792 34.4743559,42.4483683 34.4743559,42.4483683 L30.5409344,42.4483683 C30.5409344,44.2487652 28.8704726,50.6421484 28.8704726,50.6421484 Z" id="Shape" fill="#1A202C" fill-rule="nonzero"></path>
        <path d="M13.333758,39.5072464 C7.77789154,34.9947771 5,30.0068296 5,24.5432543 C5,23.2645452 5.14763198,21.9884972 5.44290037,20.715072 C5.73816876,19.4416468 6.21420657,18.1655988 6.87102809,16.8868897 C7.52784961,15.6081806 8.3955641,14.3294907 9.47419761,13.0507816 C10.5528311,11.7720725 11.8634415,10.5039502 13.4060682,9.24637681 L17.1186441,12.5602599 C12.4425569,16.6077441 10.1045484,19.4125671 10.1045484,24.3371824 C10.1045484,29.4202899 12.0026929,31.942029 17.1186441,36.1299565 L13.333758,39.5072464 Z" id="(-)" fill="#1A202C"></path>
        <path d="M56.2151139,39.5072464 C50.6592475,34.9947771 47.8813559,30.0068296 47.8813559,24.5432543 C47.8813559,23.2645452 48.0289879,21.9884972 48.3242563,20.715072 C48.6195247,19.4416468 49.0955625,18.1655988 49.752384,16.8868897 C50.4092055,15.6081806 51.27692,14.3294907 52.3555535,13.0507816 C53.434187,11.7720725 54.7447975,10.5039502 56.2874242,9.24637681 L60,12.5602599 C55.3239129,16.6077441 52.9859044,19.4125671 52.9859044,24.3371824 C52.9859044,29.4202899 54.8840488,31.942029 60,36.1299565 L56.2151139,39.5072464 Z" id="(-)" fill="#1A202C" transform="translate(53.940678, 24.376812) rotate(-180.000000) translate(-53.940678, -24.376812) "></path>
    </g>
</svg>