<?xml version="1.0" encoding="UTF-8"?>
<svg width="163px" height="744px" viewBox="0 0 163 744" version="1.1" xmlns="http://www.w3.org/2000/svg" xmlns:xlink="http://www.w3.org/1999/xlink">
    <!-- Generator: Sketch 51.2 (57519) - http://www.bohemiancoding.com/sketch -->
    <title>Shape</title>
    <desc>Created with Sketch.</desc>
    <defs></defs>
    <g id="Page-2" stroke="none" stroke-width="1" fill="none" fill-rule="evenodd" opacity="0.26875">
        <g id="Desktop-HD-Copy" transform="translate(-1277.000000, -280.000000)" fill="#CBD5E0" fill-rule="nonzero">
            <path d="M1505.11264,1031.62569 L1280.66003,1033 L1280.66003,972.26874 L1277,971.134392 L1277,960.063589 L1285.53592,960.063589 C1286.56569,957.434955 1287.57065,954.817228 1288.5632,952.188595 L1277,948.578313 L1277,937.50751 L1293.94778,937.50751 C1310.33725,891.566406 1323.24039,842.974854 1333.3768,793.892478 L1325.6101,789.72593 L1325.6101,778.655127 L1336.41648,778.655127 C1382.45836,542.525269 1366.71405,409.533844 1370.25001,403.404001 L1370.25001,397.557744 L1365.70909,397.557744 L1365.70909,388.330258 L1370.25001,388.330258 L1370.25001,385.254429 L1365.70909,385.254429 L1365.70909,376.026942 L1370.57259,376.026942 L1384.93974,361.880311 L1391.40371,361.880311 L1391.40371,352.761896 L1386.75114,352.761896 L1386.75114,348.246317 L1391.40371,348.246317 L1391.40371,344.210655 L1386.75114,344.210655 L1386.75114,339.716891 L1391.40371,339.716891 L1391.40371,335.692136 L1386.75114,335.692136 L1386.75114,331.176557 L1391.40371,331.176557 L1391.40371,327.140895 L1386.75114,327.140895 L1386.75114,322.625317 L1391.40371,322.625317 L1391.40371,281.428843 C1391.40371,280.643524 1392.14813,280 1393.04142,280 C1393.93472,280 1394.67913,280.632617 1394.67913,281.428843 L1394.67913,322.625317 L1399.34411,322.625317 L1399.34411,327.129988 L1394.67913,327.129988 L1394.67913,331.16565 L1399.34411,331.16565 L1399.34411,335.670322 L1394.67913,335.670322 L1394.67913,339.705984 L1399.34411,339.705984 L1399.34411,344.210655 L1394.67913,344.210655 L1394.67913,348.246317 L1399.34411,348.246317 L1399.34411,352.729174 L1394.67913,352.729174 L1394.67913,361.847589 L1399.62947,361.847589 L1414.00902,375.99422 L1418.87252,375.99422 L1418.87252,385.221707 L1414.3316,385.221707 L1414.3316,388.297536 L1418.87252,388.297536 L1418.87252,397.525023 L1414.3316,397.525023 L1414.3316,403.371279 C1417.85515,409.51203 1402.47064,542.492547 1448.73584,778.622405 L1459.55463,778.622405 L1459.55463,791.329287 L1452.06088,795.048641 C1462.22211,843.72745 1475.10043,891.904529 1491.37824,937.474789 L1506.94886,937.474789 L1506.94886,950.181671 L1497.11022,953.028449 C1497.9911,955.362588 1498.8968,957.696728 1499.80251,960.030868 L1506.94886,960.030868 L1506.94886,972.726842 L1505.11264,973.250387 L1505.11264,1031.62569 Z M1344.85315,937.474789 L1439.989,937.474789 C1435.79548,935.009763 1417.60702,831.096919 1417.60702,831.096919 L1366.54035,831.096919 C1366.54035,854.471037 1344.85315,937.474789 1344.85315,937.474789 Z" id="Shape"></path>
        </g>
    </g>
</svg>